<mxfile host="www.draw.io" modified="2019-12-18T08:14:21.361Z" agent="Mozilla/5.0 (Macintosh; Intel Mac OS X 10_14_5) AppleWebKit/537.36 (KHTML, like Gecko) Chrome/79.0.3945.79 Safari/537.36" etag="zmm6eyxptCVaZByLhewB" version="12.4.3" type="github" pages="1">
  <diagram id="dEg8KyTWXzqVYMuuAxpU" name="Page-1">
    <mxGraphModel dx="2546" dy="2814" grid="1" gridSize="10" guides="1" tooltips="1" connect="1" arrows="1" fold="1" page="1" pageScale="1" pageWidth="1600" pageHeight="2200" math="0" shadow="0">
      <root>
        <mxCell id="0"/>
        <mxCell id="1" parent="0"/>
        <mxCell id="946jWutNOFPCeHXfuNjZ-25" value="" style="shape=ext;double=1;rounded=0;whiteSpace=wrap;html=1;" parent="1" vertex="1">
          <mxGeometry x="-1550" y="150" width="460" height="500" as="geometry"/>
        </mxCell>
        <mxCell id="946jWutNOFPCeHXfuNjZ-27" value="&lt;span style=&quot;white-space: normal&quot;&gt;EventFactory&lt;/span&gt;" style="rounded=0;whiteSpace=wrap;html=1;" parent="1" vertex="1">
          <mxGeometry x="-1250" y="165" width="120" height="60" as="geometry"/>
        </mxCell>
        <mxCell id="946jWutNOFPCeHXfuNjZ-28" value="Disruptor" style="ellipse;whiteSpace=wrap;html=1;" parent="1" vertex="1">
          <mxGeometry x="-1530" y="365" width="120" height="60" as="geometry"/>
        </mxCell>
        <mxCell id="946jWutNOFPCeHXfuNjZ-29" value="" style="endArrow=classic;html=1;entryX=0;entryY=0.5;entryDx=0;entryDy=0;exitX=1;exitY=0;exitDx=0;exitDy=0;" parent="1" source="946jWutNOFPCeHXfuNjZ-28" target="946jWutNOFPCeHXfuNjZ-27" edge="1">
          <mxGeometry width="50" height="50" relative="1" as="geometry">
            <mxPoint x="-1420" y="285" as="sourcePoint"/>
            <mxPoint x="-1370" y="235" as="targetPoint"/>
          </mxGeometry>
        </mxCell>
        <mxCell id="946jWutNOFPCeHXfuNjZ-30" value="ringBufferSize" style="rounded=0;whiteSpace=wrap;html=1;" parent="1" vertex="1">
          <mxGeometry x="-1250" y="265" width="120" height="60" as="geometry"/>
        </mxCell>
        <mxCell id="946jWutNOFPCeHXfuNjZ-31" value="" style="endArrow=classic;html=1;exitX=1;exitY=0.333;exitDx=0;exitDy=0;exitPerimeter=0;entryX=0;entryY=0.5;entryDx=0;entryDy=0;" parent="1" source="946jWutNOFPCeHXfuNjZ-28" target="946jWutNOFPCeHXfuNjZ-30" edge="1">
          <mxGeometry width="50" height="50" relative="1" as="geometry">
            <mxPoint x="-1300" y="405" as="sourcePoint"/>
            <mxPoint x="-1250" y="355" as="targetPoint"/>
          </mxGeometry>
        </mxCell>
        <mxCell id="946jWutNOFPCeHXfuNjZ-32" value="Executor" style="rounded=0;whiteSpace=wrap;html=1;" parent="1" vertex="1">
          <mxGeometry x="-1250" y="355" width="120" height="60" as="geometry"/>
        </mxCell>
        <mxCell id="946jWutNOFPCeHXfuNjZ-33" value="" style="endArrow=classic;html=1;exitX=1;exitY=0.5;exitDx=0;exitDy=0;entryX=0;entryY=0.5;entryDx=0;entryDy=0;" parent="1" source="946jWutNOFPCeHXfuNjZ-28" target="946jWutNOFPCeHXfuNjZ-32" edge="1">
          <mxGeometry width="50" height="50" relative="1" as="geometry">
            <mxPoint x="-1380" y="395" as="sourcePoint"/>
            <mxPoint x="-1330" y="345" as="targetPoint"/>
          </mxGeometry>
        </mxCell>
        <mxCell id="946jWutNOFPCeHXfuNjZ-34" value="ProductType" style="rounded=0;whiteSpace=wrap;html=1;" parent="1" vertex="1">
          <mxGeometry x="-1250" y="455" width="120" height="60" as="geometry"/>
        </mxCell>
        <mxCell id="946jWutNOFPCeHXfuNjZ-35" value="" style="endArrow=classic;html=1;entryX=0;entryY=0.5;entryDx=0;entryDy=0;exitX=0.942;exitY=0.783;exitDx=0;exitDy=0;exitPerimeter=0;" parent="1" source="946jWutNOFPCeHXfuNjZ-28" target="946jWutNOFPCeHXfuNjZ-34" edge="1">
          <mxGeometry width="50" height="50" relative="1" as="geometry">
            <mxPoint x="-1400" y="485" as="sourcePoint"/>
            <mxPoint x="-1350" y="435" as="targetPoint"/>
          </mxGeometry>
        </mxCell>
        <mxCell id="946jWutNOFPCeHXfuNjZ-36" value="WaitStrategy" style="rounded=0;whiteSpace=wrap;html=1;" parent="1" vertex="1">
          <mxGeometry x="-1250" y="555" width="120" height="60" as="geometry"/>
        </mxCell>
        <mxCell id="946jWutNOFPCeHXfuNjZ-37" value="" style="endArrow=classic;html=1;exitX=1;exitY=1;exitDx=0;exitDy=0;entryX=0;entryY=0.5;entryDx=0;entryDy=0;" parent="1" source="946jWutNOFPCeHXfuNjZ-28" target="946jWutNOFPCeHXfuNjZ-36" edge="1">
          <mxGeometry width="50" height="50" relative="1" as="geometry">
            <mxPoint x="-1410" y="575" as="sourcePoint"/>
            <mxPoint x="-1360" y="525" as="targetPoint"/>
          </mxGeometry>
        </mxCell>
        <mxCell id="946jWutNOFPCeHXfuNjZ-43" value="构建Disruptor" style="text;strokeColor=none;fillColor=none;html=1;fontSize=24;fontStyle=1;verticalAlign=middle;align=center;" parent="1" vertex="1">
          <mxGeometry x="-1490" y="185" width="100" height="40" as="geometry"/>
        </mxCell>
        <mxCell id="946jWutNOFPCeHXfuNjZ-109" value="&lt;span style=&quot;color: rgba(0 , 0 , 0 , 0) ; font-family: monospace ; font-size: 0px&quot;&gt;%3CmxGraphModel%3E%3Croot%3E%3CmxCell%20id%3D%220%22%2F%3E%3CmxCell%20id%3D%221%22%20parent%3D%220%22%2F%3E%3CmxCell%20id%3D%222%22%20value%3D%22EventHandler%22%20style%3D%22ellipse%3BwhiteSpace%3Dwrap%3Bhtml%3D1%3B%22%20vertex%3D%221%22%20parent%3D%221%22%3E%3CmxGeometry%20x%3D%22-1530%22%20y%3D%22710%22%20width%3D%22120%22%20height%3D%2260%22%20as%3D%22geometry%22%2F%3E%3C%2FmxCell%3E%3CmxCell%20id%3D%223%22%20value%3D%22E1%22%20style%3D%22rounded%3D0%3BwhiteSpace%3Dwrap%3Bhtml%3D1%3B%22%20vertex%3D%221%22%20parent%3D%221%22%3E%3CmxGeometry%20x%3D%22-1300%22%20y%3D%22670%22%20width%3D%22120%22%20height%3D%2260%22%20as%3D%22geometry%22%2F%3E%3C%2FmxCell%3E%3CmxCell%20id%3D%224%22%20value%3D%22E2%22%20style%3D%22rounded%3D0%3BwhiteSpace%3Dwrap%3Bhtml%3D1%3B%22%20vertex%3D%221%22%20parent%3D%221%22%3E%3CmxGeometry%20x%3D%22-1300%22%20y%3D%22750%22%20width%3D%22120%22%20height%3D%2260%22%20as%3D%22geometry%22%2F%3E%3C%2FmxCell%3E%3CmxCell%20id%3D%225%22%20value%3D%22%22%20style%3D%22endArrow%3Dclassic%3Bhtml%3D1%3BentryX%3D-0.033%3BentryY%3D0.4%3BentryDx%3D0%3BentryDy%3D0%3BentryPerimeter%3D0%3BexitX%3D1%3BexitY%3D0.5%3BexitDx%3D0%3BexitDy%3D0%3B%22%20edge%3D%221%22%20source%3D%222%22%20target%3D%223%22%20parent%3D%221%22%3E%3CmxGeometry%20width%3D%2250%22%20height%3D%2250%22%20relative%3D%221%22%20as%3D%22geometry%22%3E%3CmxPoint%20x%3D%22-1400%22%20y%3D%22730%22%20as%3D%22sourcePoint%22%2F%3E%3CmxPoint%20x%3D%22-1350%22%20y%3D%22680%22%20as%3D%22targetPoint%22%2F%3E%3C%2FmxGeometry%3E%3C%2FmxCell%3E%3CmxCell%20id%3D%226%22%20value%3D%22%22%20style%3D%22endArrow%3Dclassic%3Bhtml%3D1%3BentryX%3D0%3BentryY%3D0.5%3BentryDx%3D0%3BentryDy%3D0%3BexitX%3D1%3BexitY%3D0.5%3BexitDx%3D0%3BexitDy%3D0%3B%22%20edge%3D%221%22%20source%3D%222%22%20target%3D%224%22%20parent%3D%221%22%3E%3CmxGeometry%20width%3D%2250%22%20height%3D%2250%22%20relative%3D%221%22%20as%3D%22geometry%22%3E%3CmxPoint%20x%3D%22-1400%22%20y%3D%22810%22%20as%3D%22sourcePoint%22%2F%3E%3CmxPoint%20x%3D%22-1350%22%20y%3D%22760%22%20as%3D%22targetPoint%22%2F%3E%3C%2FmxGeometry%3E%3C%2FmxCell%3E%3CmxCell%20id%3D%227%22%20value%3D%22E3%22%20style%3D%22rounded%3D0%3BwhiteSpace%3Dwrap%3Bhtml%3D1%3B%22%20vertex%3D%221%22%20parent%3D%221%22%3E%3CmxGeometry%20x%3D%22-1070%22%20y%3D%22670%22%20width%3D%22120%22%20height%3D%2260%22%20as%3D%22geometry%22%2F%3E%3C%2FmxCell%3E%3CmxCell%20id%3D%228%22%20value%3D%22%26lt%3Bspan%20style%3D%26quot%3Bwhite-space%3A%20normal%26quot%3B%26gt%3BE4%26lt%3B%2Fspan%26gt%3B%22%20style%3D%22rounded%3D0%3BwhiteSpace%3Dwrap%3Bhtml%3D1%3B%22%20vertex%3D%221%22%20parent%3D%221%22%3E%3CmxGeometry%20x%3D%22-1070%22%20y%3D%22750%22%20width%3D%22120%22%20height%3D%2260%22%20as%3D%22geometry%22%2F%3E%3C%2FmxCell%3E%3CmxCell%20id%3D%229%22%20value%3D%22%22%20style%3D%22endArrow%3Dclassic%3Bhtml%3D1%3BentryX%3D0%3BentryY%3D0.5%3BentryDx%3D0%3BentryDy%3D0%3BexitX%3D1%3BexitY%3D0.5%3BexitDx%3D0%3BexitDy%3D0%3B%22%20edge%3D%221%22%20source%3D%223%22%20target%3D%227%22%20parent%3D%221%22%3E%3CmxGeometry%20width%3D%2250%22%20height%3D%2250%22%20relative%3D%221%22%20as%3D%22geometry%22%3E%3CmxPoint%20x%3D%22-1160%22%20y%3D%22720%22%20as%3D%22sourcePoint%22%2F%3E%3CmxPoint%20x%3D%22-1110%22%20y%3D%22670%22%20as%3D%22targetPoint%22%2F%3E%3C%2FmxGeometry%3E%3C%2FmxCell%3E%3CmxCell%20id%3D%2210%22%20value%3D%22%22%20style%3D%22endArrow%3Dclassic%3Bhtml%3D1%3BentryX%3D0%3BentryY%3D0.5%3BentryDx%3D0%3BentryDy%3D0%3BexitX%3D1%3BexitY%3D0.5%3BexitDx%3D0%3BexitDy%3D0%3B%22%20edge%3D%221%22%20source%3D%224%22%20target%3D%228%22%20parent%3D%221%22%3E%3CmxGeometry%20width%3D%2250%22%20height%3D%2250%22%20relative%3D%221%22%20as%3D%22geometry%22%3E%3CmxPoint%20x%3D%22-1140%22%20y%3D%22810%22%20as%3D%22sourcePoint%22%2F%3E%3CmxPoint%20x%3D%22-1080%22%20y%3D%22790%22%20as%3D%22targetPoint%22%2F%3E%3C%2FmxGeometry%3E%3C%2FmxCell%3E%3CmxCell%20id%3D%2211%22%20value%3D%22E5%22%20style%3D%22rounded%3D0%3BwhiteSpace%3Dwrap%3Bhtml%3D1%3B%22%20vertex%3D%221%22%20parent%3D%221%22%3E%3CmxGeometry%20x%3D%22-880%22%20y%3D%22720%22%20width%3D%22120%22%20height%3D%2260%22%20as%3D%22geometry%22%2F%3E%3C%2FmxCell%3E%3CmxCell%20id%3D%2212%22%20value%3D%22%22%20style%3D%22endArrow%3Dclassic%3Bhtml%3D1%3BentryX%3D0%3BentryY%3D0.5%3BentryDx%3D0%3BentryDy%3D0%3BexitX%3D1%3BexitY%3D0.5%3BexitDx%3D0%3BexitDy%3D0%3B%22%20edge%3D%221%22%20source%3D%227%22%20target%3D%2211%22%20parent%3D%221%22%3E%3CmxGeometry%20width%3D%2250%22%20height%3D%2250%22%20relative%3D%221%22%20as%3D%22geometry%22%3E%3CmxPoint%20x%3D%22-940%22%20y%3D%22760%22%20as%3D%22sourcePoint%22%2F%3E%3CmxPoint%20x%3D%22-890%22%20y%3D%22710%22%20as%3D%22targetPoint%22%2F%3E%3C%2FmxGeometry%3E%3C%2FmxCell%3E%3CmxCell%20id%3D%2213%22%20value%3D%22%22%20style%3D%22endArrow%3Dclassic%3Bhtml%3D1%3BentryX%3D0%3BentryY%3D0.5%3BentryDx%3D0%3BentryDy%3D0%3BexitX%3D1%3BexitY%3D0.5%3BexitDx%3D0%3BexitDy%3D0%3B%22%20edge%3D%221%22%20source%3D%228%22%20target%3D%2211%22%20parent%3D%221%22%3E%3CmxGeometry%20width%3D%2250%22%20height%3D%2250%22%20relative%3D%221%22%20as%3D%22geometry%22%3E%3CmxPoint%20x%3D%22-950%22%20y%3D%22800%22%20as%3D%22sourcePoint%22%2F%3E%3CmxPoint%20x%3D%22-900%22%20y%3D%22750%22%20as%3D%22targetPoint%22%2F%3E%3C%2FmxGeometry%3E%3C%2FmxCell%3E%3C%2Froot%3E%3C%2FmxGraphModel%3E&lt;/span&gt;" style="shape=ext;double=1;rounded=0;whiteSpace=wrap;html=1;" parent="1" vertex="1">
          <mxGeometry x="-930" y="-60" width="810" height="335" as="geometry"/>
        </mxCell>
        <mxCell id="946jWutNOFPCeHXfuNjZ-110" value="EventHandler" style="ellipse;whiteSpace=wrap;html=1;" parent="1" vertex="1">
          <mxGeometry x="-910" y="40" width="120" height="60" as="geometry"/>
        </mxCell>
        <mxCell id="946jWutNOFPCeHXfuNjZ-111" value="E1" style="rounded=0;whiteSpace=wrap;html=1;" parent="1" vertex="1">
          <mxGeometry x="-680" width="120" height="60" as="geometry"/>
        </mxCell>
        <mxCell id="946jWutNOFPCeHXfuNjZ-112" value="E2" style="rounded=0;whiteSpace=wrap;html=1;" parent="1" vertex="1">
          <mxGeometry x="-680" y="80" width="120" height="60" as="geometry"/>
        </mxCell>
        <mxCell id="946jWutNOFPCeHXfuNjZ-113" value="" style="endArrow=classic;html=1;entryX=-0.033;entryY=0.4;entryDx=0;entryDy=0;entryPerimeter=0;exitX=1;exitY=0.5;exitDx=0;exitDy=0;" parent="1" source="946jWutNOFPCeHXfuNjZ-110" target="946jWutNOFPCeHXfuNjZ-111" edge="1">
          <mxGeometry width="50" height="50" relative="1" as="geometry">
            <mxPoint x="-780" y="60" as="sourcePoint"/>
            <mxPoint x="-730" y="10" as="targetPoint"/>
          </mxGeometry>
        </mxCell>
        <mxCell id="946jWutNOFPCeHXfuNjZ-114" value="" style="endArrow=classic;html=1;entryX=0;entryY=0.5;entryDx=0;entryDy=0;exitX=1;exitY=0.5;exitDx=0;exitDy=0;" parent="1" source="946jWutNOFPCeHXfuNjZ-110" target="946jWutNOFPCeHXfuNjZ-112" edge="1">
          <mxGeometry width="50" height="50" relative="1" as="geometry">
            <mxPoint x="-780" y="140" as="sourcePoint"/>
            <mxPoint x="-730" y="90" as="targetPoint"/>
          </mxGeometry>
        </mxCell>
        <mxCell id="946jWutNOFPCeHXfuNjZ-115" value="E3" style="rounded=0;whiteSpace=wrap;html=1;" parent="1" vertex="1">
          <mxGeometry x="-450" width="120" height="60" as="geometry"/>
        </mxCell>
        <mxCell id="946jWutNOFPCeHXfuNjZ-116" value="&lt;span style=&quot;white-space: normal&quot;&gt;E4&lt;/span&gt;" style="rounded=0;whiteSpace=wrap;html=1;" parent="1" vertex="1">
          <mxGeometry x="-450" y="80" width="120" height="60" as="geometry"/>
        </mxCell>
        <mxCell id="946jWutNOFPCeHXfuNjZ-117" value="" style="endArrow=classic;html=1;entryX=0;entryY=0.5;entryDx=0;entryDy=0;exitX=1;exitY=0.5;exitDx=0;exitDy=0;" parent="1" source="946jWutNOFPCeHXfuNjZ-111" target="946jWutNOFPCeHXfuNjZ-115" edge="1">
          <mxGeometry width="50" height="50" relative="1" as="geometry">
            <mxPoint x="-540" y="50" as="sourcePoint"/>
            <mxPoint x="-490" as="targetPoint"/>
          </mxGeometry>
        </mxCell>
        <mxCell id="946jWutNOFPCeHXfuNjZ-118" value="" style="endArrow=classic;html=1;entryX=0;entryY=0.5;entryDx=0;entryDy=0;exitX=1;exitY=0.5;exitDx=0;exitDy=0;" parent="1" source="946jWutNOFPCeHXfuNjZ-112" target="946jWutNOFPCeHXfuNjZ-116" edge="1">
          <mxGeometry width="50" height="50" relative="1" as="geometry">
            <mxPoint x="-520" y="140" as="sourcePoint"/>
            <mxPoint x="-460" y="120" as="targetPoint"/>
          </mxGeometry>
        </mxCell>
        <mxCell id="946jWutNOFPCeHXfuNjZ-119" value="E5" style="rounded=0;whiteSpace=wrap;html=1;" parent="1" vertex="1">
          <mxGeometry x="-260" y="50" width="120" height="60" as="geometry"/>
        </mxCell>
        <mxCell id="946jWutNOFPCeHXfuNjZ-120" value="" style="endArrow=classic;html=1;entryX=0;entryY=0.5;entryDx=0;entryDy=0;exitX=1;exitY=0.5;exitDx=0;exitDy=0;" parent="1" source="946jWutNOFPCeHXfuNjZ-115" target="946jWutNOFPCeHXfuNjZ-119" edge="1">
          <mxGeometry width="50" height="50" relative="1" as="geometry">
            <mxPoint x="-320" y="90" as="sourcePoint"/>
            <mxPoint x="-270" y="40" as="targetPoint"/>
          </mxGeometry>
        </mxCell>
        <mxCell id="946jWutNOFPCeHXfuNjZ-121" value="" style="endArrow=classic;html=1;entryX=0;entryY=0.5;entryDx=0;entryDy=0;exitX=1;exitY=0.5;exitDx=0;exitDy=0;" parent="1" source="946jWutNOFPCeHXfuNjZ-116" target="946jWutNOFPCeHXfuNjZ-119" edge="1">
          <mxGeometry width="50" height="50" relative="1" as="geometry">
            <mxPoint x="-330" y="130" as="sourcePoint"/>
            <mxPoint x="-280" y="80" as="targetPoint"/>
          </mxGeometry>
        </mxCell>
        <mxCell id="946jWutNOFPCeHXfuNjZ-122" value="消费者" style="text;strokeColor=none;fillColor=none;html=1;fontSize=24;fontStyle=1;verticalAlign=middle;align=center;" parent="1" vertex="1">
          <mxGeometry x="-890" y="-40" width="100" height="40" as="geometry"/>
        </mxCell>
        <mxCell id="946jWutNOFPCeHXfuNjZ-124" value="" style="shape=ext;double=1;rounded=1;whiteSpace=wrap;html=1;" parent="1" vertex="1">
          <mxGeometry x="-790" y="365" width="430" height="350" as="geometry"/>
        </mxCell>
        <mxCell id="946jWutNOFPCeHXfuNjZ-128" value="" style="endArrow=classic;html=1;entryX=0;entryY=0.25;entryDx=0;entryDy=0;exitX=1;exitY=0.5;exitDx=0;exitDy=0;" parent="1" edge="1" target="pmHNlwbh6O47197Xcgzu-6">
          <mxGeometry width="50" height="50" relative="1" as="geometry">
            <mxPoint x="-1130" y="195" as="sourcePoint"/>
            <mxPoint x="-950" y="395" as="targetPoint"/>
          </mxGeometry>
        </mxCell>
        <mxCell id="946jWutNOFPCeHXfuNjZ-130" value="" style="endArrow=classic;html=1;entryX=0;entryY=0.25;entryDx=0;entryDy=0;exitX=1;exitY=0.5;exitDx=0;exitDy=0;" parent="1" edge="1" target="pmHNlwbh6O47197Xcgzu-6">
          <mxGeometry width="50" height="50" relative="1" as="geometry">
            <mxPoint x="-1130" y="485" as="sourcePoint"/>
            <mxPoint x="-950" y="395" as="targetPoint"/>
          </mxGeometry>
        </mxCell>
        <mxCell id="946jWutNOFPCeHXfuNjZ-131" value="" style="endArrow=classic;html=1;entryX=0;entryY=0.25;entryDx=0;entryDy=0;exitX=1;exitY=0.5;exitDx=0;exitDy=0;" parent="1" edge="1" target="pmHNlwbh6O47197Xcgzu-6">
          <mxGeometry width="50" height="50" relative="1" as="geometry">
            <mxPoint x="-1130" y="585" as="sourcePoint"/>
            <mxPoint x="-950" y="395" as="targetPoint"/>
          </mxGeometry>
        </mxCell>
        <mxCell id="pmHNlwbh6O47197Xcgzu-5" value="RingBuffer" style="swimlane;childLayout=stackLayout;horizontal=1;startSize=30;horizontalStack=0;fillColor=#008cff;fontColor=#FFFFFF;rounded=1;fontSize=14;fontStyle=0;strokeWidth=2;resizeParent=0;resizeLast=1;shadow=0;dashed=0;align=center;" vertex="1" parent="1">
          <mxGeometry x="-750" y="465" width="160" height="120" as="geometry">
            <mxRectangle x="-930" y="370" width="100" height="30" as="alternateBounds"/>
          </mxGeometry>
        </mxCell>
        <mxCell id="946jWutNOFPCeHXfuNjZ-129" value="" style="endArrow=classic;html=1;entryX=0;entryY=0.5;entryDx=0;entryDy=0;exitX=1;exitY=0.5;exitDx=0;exitDy=0;" parent="pmHNlwbh6O47197Xcgzu-5" edge="1" source="946jWutNOFPCeHXfuNjZ-30">
          <mxGeometry width="50" height="50" relative="1" as="geometry">
            <mxPoint x="-180" y="-45" as="sourcePoint"/>
            <mxPoint y="55" as="targetPoint"/>
          </mxGeometry>
        </mxCell>
        <mxCell id="pmHNlwbh6O47197Xcgzu-6" value="+ Sequencer&#xa;+ Object[] entries&#xa;+ ......" style="align=left;strokeColor=none;fillColor=none;spacingLeft=4;fontSize=12;verticalAlign=top;resizable=0;rotatable=0;part=1;" vertex="1" parent="pmHNlwbh6O47197Xcgzu-5">
          <mxGeometry y="30" width="160" height="90" as="geometry"/>
        </mxCell>
        <mxCell id="pmHNlwbh6O47197Xcgzu-9" value="生产者" style="text;strokeColor=none;fillColor=none;html=1;fontSize=24;fontStyle=1;verticalAlign=middle;align=center;" vertex="1" parent="1">
          <mxGeometry x="-740" y="400" width="100" height="40" as="geometry"/>
        </mxCell>
        <mxCell id="pmHNlwbh6O47197Xcgzu-12" value="next()获取序号" style="rounded=1;whiteSpace=wrap;html=1;" vertex="1" parent="1">
          <mxGeometry x="-540" y="415" width="120" height="60" as="geometry"/>
        </mxCell>
        <mxCell id="pmHNlwbh6O47197Xcgzu-13" value="get()获取对象，组装" style="rounded=1;whiteSpace=wrap;html=1;" vertex="1" parent="1">
          <mxGeometry x="-540" y="525" width="120" height="60" as="geometry"/>
        </mxCell>
        <mxCell id="pmHNlwbh6O47197Xcgzu-14" value="publish()发布" style="rounded=1;whiteSpace=wrap;html=1;" vertex="1" parent="1">
          <mxGeometry x="-540" y="625" width="120" height="60" as="geometry"/>
        </mxCell>
        <mxCell id="pmHNlwbh6O47197Xcgzu-17" value="" style="endArrow=classic;html=1;entryX=0.5;entryY=0;entryDx=0;entryDy=0;exitX=0.5;exitY=1;exitDx=0;exitDy=0;" edge="1" parent="1" source="pmHNlwbh6O47197Xcgzu-13" target="pmHNlwbh6O47197Xcgzu-14">
          <mxGeometry width="50" height="50" relative="1" as="geometry">
            <mxPoint x="-950" y="805" as="sourcePoint"/>
            <mxPoint x="-900" y="755" as="targetPoint"/>
          </mxGeometry>
        </mxCell>
        <mxCell id="pmHNlwbh6O47197Xcgzu-20" value="" style="endArrow=classic;html=1;exitX=0.5;exitY=1;exitDx=0;exitDy=0;" edge="1" parent="1" source="pmHNlwbh6O47197Xcgzu-12" target="pmHNlwbh6O47197Xcgzu-13">
          <mxGeometry width="50" height="50" relative="1" as="geometry">
            <mxPoint x="-400" y="515" as="sourcePoint"/>
            <mxPoint x="-350" y="465" as="targetPoint"/>
          </mxGeometry>
        </mxCell>
        <mxCell id="pmHNlwbh6O47197Xcgzu-29" value="" style="endArrow=classic;startArrow=classic;html=1;exitX=1;exitY=0.5;exitDx=0;exitDy=0;entryX=-0.002;entryY=0.545;entryDx=0;entryDy=0;entryPerimeter=0;" edge="1" parent="1" source="946jWutNOFPCeHXfuNjZ-32" target="946jWutNOFPCeHXfuNjZ-109">
          <mxGeometry width="50" height="50" relative="1" as="geometry">
            <mxPoint x="-1030" y="250" as="sourcePoint"/>
            <mxPoint x="-980" y="200" as="targetPoint"/>
          </mxGeometry>
        </mxCell>
        <mxCell id="pmHNlwbh6O47197Xcgzu-30" value="这里会将事件封装成&lt;span style=&quot;background-color: rgb(255 , 255 , 255) ; font-family: &amp;#34;menlo&amp;#34; ; font-size: 9pt&quot;&gt;EventProcessor,调用disruptor的start()方法后，Executor会启动事件并执行&lt;/span&gt;" style="text;html=1;strokeColor=none;fillColor=none;align=center;verticalAlign=middle;whiteSpace=wrap;rounded=0;" vertex="1" parent="1">
          <mxGeometry x="-890" y="180" width="580" height="55" as="geometry"/>
        </mxCell>
        <mxCell id="pmHNlwbh6O47197Xcgzu-31" value="创建disruptor对象" style="rounded=1;whiteSpace=wrap;html=1;" vertex="1" parent="1">
          <mxGeometry x="-1050" y="1240" width="120" height="60" as="geometry"/>
        </mxCell>
        <mxCell id="pmHNlwbh6O47197Xcgzu-32" value="绑定处理事件" style="rounded=1;whiteSpace=wrap;html=1;" vertex="1" parent="1">
          <mxGeometry x="-1050" y="1360" width="120" height="60" as="geometry"/>
        </mxCell>
        <mxCell id="pmHNlwbh6O47197Xcgzu-33" value="开启disruptor" style="rounded=1;whiteSpace=wrap;html=1;" vertex="1" parent="1">
          <mxGeometry x="-1050" y="1470" width="120" height="60" as="geometry"/>
        </mxCell>
        <mxCell id="pmHNlwbh6O47197Xcgzu-34" value="" style="endArrow=classic;html=1;entryX=0.5;entryY=0;entryDx=0;entryDy=0;" edge="1" parent="1" target="pmHNlwbh6O47197Xcgzu-32">
          <mxGeometry width="50" height="50" relative="1" as="geometry">
            <mxPoint x="-990" y="1305" as="sourcePoint"/>
            <mxPoint x="-970" y="1305" as="targetPoint"/>
          </mxGeometry>
        </mxCell>
        <mxCell id="pmHNlwbh6O47197Xcgzu-35" value="" style="endArrow=classic;html=1;entryX=0.5;entryY=0;entryDx=0;entryDy=0;" edge="1" parent="1" target="pmHNlwbh6O47197Xcgzu-33">
          <mxGeometry width="50" height="50" relative="1" as="geometry">
            <mxPoint x="-990" y="1425" as="sourcePoint"/>
            <mxPoint x="-1090" y="1470" as="targetPoint"/>
          </mxGeometry>
        </mxCell>
        <mxCell id="pmHNlwbh6O47197Xcgzu-36" value="生产消息" style="rounded=1;whiteSpace=wrap;html=1;" vertex="1" parent="1">
          <mxGeometry x="-1050" y="1585" width="120" height="60" as="geometry"/>
        </mxCell>
        <mxCell id="pmHNlwbh6O47197Xcgzu-37" value="" style="endArrow=classic;html=1;entryX=0.5;entryY=0;entryDx=0;entryDy=0;exitX=0.5;exitY=1;exitDx=0;exitDy=0;" edge="1" parent="1" source="pmHNlwbh6O47197Xcgzu-33" target="pmHNlwbh6O47197Xcgzu-36">
          <mxGeometry width="50" height="50" relative="1" as="geometry">
            <mxPoint x="-900" y="1515" as="sourcePoint"/>
            <mxPoint x="-850" y="1465" as="targetPoint"/>
          </mxGeometry>
        </mxCell>
      </root>
    </mxGraphModel>
  </diagram>
</mxfile>
